<svg xmlns="http://www.w3.org/2000/svg" xmlns:xlink="http://www.w3.org/1999/xlink" viewBox="0,0,256,256" width="48px" height="48px" fill-rule="nonzero"><g fill="none" fill-rule="nonzero" stroke="none" stroke-width="1" stroke-linecap="butt" stroke-linejoin="none" stroke-miterlimit="10" stroke-dasharray="" stroke-dashoffset="0" font-family="none" font-weight="none" font-size="none" text-anchor="none" style="mix-blend-mode: normal"><g transform="scale(5.33333,5.33333)"><path d="M43,34.204c-3.082,0 -3.082,-0.163 -6.163,-0.163c-3.083,0 -3.083,-0.179 -6.165,-0.179c-3.081,0 -3.081,0.067 -6.162,0.067c-3.084,0 -3.084,0.255 -6.167,0.255c-3.086,0 -3.086,0.145 -6.171,0.145c-3.086,0 -3.086,-0.112 -6.171,-0.112c-1.105,0 -1.898,-1.11 -1.898,-2.215c0,-3.665 -0.03,-3.665 -0.03,-7.33c0,-3.668 -0.07,-3.668 -0.07,-7.335c0,-3.668 -0.317,-3.668 -0.317,-7.335c0,-1.105 1.212,-1.96 2.317,-1.96c3.082,0 3.082,0.342 6.163,0.342c3.083,0 3.083,-0.619 6.165,-0.619c3.081,0 3.081,0.268 6.162,0.268c3.084,0 3.084,0.038 6.167,0.038c3.086,0 3.086,-0.395 6.171,-0.395c3.086,0 3.086,-0.003 6.171,-0.003c1.105,0 2.044,1.224 2.044,2.329c0,3.665 0.157,3.665 0.157,7.33c0,3.668 0.186,3.668 0.186,7.335c0,3.667 -0.445,3.665 -0.445,7.333c0,1.105 -0.839,2.204 -1.944,2.204z" fill="#9b004d" stroke="none" stroke-linejoin="miter"></path><path d="M37.339,40.448c0.383,-0.214 -26.08,0.141 -25.804,0.317c-0.26,-0.355 -0.215,-3.041 -0.073,-3.179c0.144,-0.008 26.186,0.112 26.065,-0.187c0.152,-0.125 -0.113,2.981 -0.188,3.049z" fill="#9b004d" stroke="none" stroke-linejoin="miter"></path><path d="M42.5,34.704c-3.082,0 -3.082,-0.163 -6.163,-0.163c-3.083,0 -3.083,-0.179 -6.165,-0.179c-3.081,0 -3.081,0.067 -6.162,0.067c-3.084,0 -3.084,0.255 -6.167,0.255c-3.086,0 -3.086,0.145 -6.171,0.145c-3.086,0 -3.086,-0.112 -6.171,-0.112c-1.105,0 -1.898,-1.11 -1.898,-2.215c0,-3.665 -0.03,-3.665 -0.03,-7.33c0,-3.668 -0.07,-3.668 -0.07,-7.335c0,-3.668 -0.317,-3.668 -0.317,-7.335c0,-1.105 1.212,-1.96 2.317,-1.96c3.082,0 3.082,0.342 6.163,0.342c3.083,0 3.083,-0.619 6.165,-0.619c3.081,0 3.081,0.268 6.162,0.268c3.084,0 3.084,0.038 6.167,0.038c3.086,0 3.086,-0.395 6.171,-0.395c3.086,0 3.086,-0.003 6.171,-0.003c1.105,0 2.044,1.224 2.044,2.329c0,3.665 0.157,3.665 0.157,7.33c0,3.668 0.186,3.668 0.186,7.335c0,3.667 -0.442,3.668 -0.442,7.335c-0.003,1.103 -0.842,2.202 -1.947,2.202z" fill="none" stroke="#010101" stroke-linejoin="round"></path><path d="M37.339,40.448c0.383,-0.214 -26.08,0.141 -25.804,0.317c-0.26,-0.355 -0.215,-3.041 -0.073,-3.179c0.144,-0.008 26.186,0.112 26.065,-0.187c0.152,-0.125 -0.113,2.981 -0.188,3.049z" fill="none" stroke="#010101" stroke-linejoin="round"></path><path d="M20.5,22c0.177,-0.118 0.028,-5.882 0,-6c-0.193,0.039 5.016,2.96 5.196,3c-0.03,0.038 5.052,3.099 5.196,3c0.085,0.034 -5.175,2.955 -5.196,3c0.118,0.088 -5.053,2.9 -5.196,3c-0.138,-0.068 -0.069,-6.053 0,-6z" fill="#ffffff" stroke="none" stroke-linejoin="miter"></path><path d="M20.5,22c0.177,-0.118 0.028,-5.882 0,-6c-0.193,0.039 5.016,2.96 5.196,3c-0.03,0.038 5.052,3.099 5.196,3c0.085,0.034 -5.175,2.955 -5.196,3c0.118,0.088 -5.053,2.9 -5.196,3c-0.138,-0.068 -0.069,-6.053 0,-6z" fill="none" stroke="#010101" stroke-linejoin="round"></path></g></g></svg>